<svg xmlns="http://www.w3.org/2000/svg" enable-background="new 0 0 65 65" viewBox="0 0 65 65" id="lightsaber">
  <path d="M57.26863,2.22233L28.62136,30.87058l-2.23212-2.23224c-0.29297-0.29297-0.76758-0.29297-1.06055,0
		s-0.29297,0.76758,0,1.06055l1.78705,1.78717l-1.95648,1.95648c-0.00079,0.00085-0.00171,0.00159-0.0025,0.0025l-6.67108,6.67108
		l-0.72778-0.72778l-2.79687-2.79785c-0.14063-0.14063-0.33105-0.21973-0.53027-0.21973c-0.19873,0-0.38965,0.0791-0.53027,0.21973
		l-4.84521,4.8457c-0.29297,0.29297-0.29297,0.76758,0,1.06055l2.26672,2.26672l-3.78455,3.78436L6.03817,47.0485
		c-0.28125-0.28125-0.7793-0.28125-1.06055,0l-3.7085,3.70898c-0.29297,0.29297-0.29297,0.76758,0,1.06055l1.49896,1.49908
		l-1.79584,1.79584c-0.29297,0.29297-0.29297,0.76758,0,1.06055l7.85645,7.85742c0.14648,0.14648,0.33838,0.21973,0.53027,0.21973
		s0.38379-0.07324,0.53027-0.21973l1.79639-1.79596l1.49902,1.49908c0.14063,0.14063,0.33154,0.21973,0.53027,0.21973
		s0.38965-0.0791,0.53027-0.21973l3.7085-3.70898c0.29297-0.29297,0.29297-0.76758,0-1.06055l-1.49896-1.49908l9.1601-9.1601
		c0.14063-0.14063,0.21973-0.33105,0.21973-0.53027s-0.0791-0.38965-0.21973-0.53027l-0.7276-0.72754l8.62952-8.62988
		l1.78705,1.78711c0.29296,0.29296,0.76757,0.29298,1.06055,0c0.29297-0.29297,0.29297-0.76758,0-1.06055l-2.23212-2.23224
		L62.78035,7.73405c1.88539-1.88757,1.86518-4.53706,0.44434-5.95605C61.63001,0.18096,58.9594,0.53157,57.26863,2.22233z
		 M12.38241,43.7028l-1.73633-1.73633l3.78467-3.78516l1.73633,1.7373l-0.33984,0.33978L12.38241,43.7028z M10.40523,53.5369
		L7.75704,56.1851l-1.60999-1.61011l2.64856-2.64783L10.40523,53.5369z M8.81759,57.24564l2.64819-2.64819l1.60999,1.61011
		l-2.64856,2.64783L8.81759,57.24564z M5.50789,48.63932l2.22717,2.22729l-2.6485,2.64783
		c-0.14648-0.14648-2.32792-2.32799-2.22662-2.22668L5.50789,48.63932z M9.35897,62.4401l-6.7959-6.79688l1.26556-1.26556
		c0.10016,0.10016,7.18452,7.18491,6.79645,6.79681L9.35897,62.4401z M13.71492,62.14323l-2.22717-2.22729l2.64856-2.64783
		c0.13636,0.13636,2.32786,2.32799,2.22656,2.22668L13.71492,62.14323z M15.39419,56.40488
		c-0.15871-0.15873-7.1973-7.1982-6.79596-6.79681l8.62939-8.62891l6.79639,6.7959L15.39419,56.40488z M26.54451,42.73875
		l-2.61578-5.94458l1.52972-1.52972l2.61548,5.94482L26.54451,42.73875z M22.79085,37.93204l2.61578,5.94464l-1.5799,1.58002
		l-4.28027-4.28027L22.79085,37.93204z M32.45613,36.82682l-3.24426,3.24445l-2.61554-5.9447l1.57977-1.57977
		C28.27658,32.64727,32.74049,37.11117,32.45613,36.82682z M61.71981,6.6735L33.07186,35.32096
		c-0.10096-0.10096-3.61308-3.61295-3.38995-3.38983L58.32918,3.28288c1.06068-1.06067,2.81878-1.46051,3.83496-0.44434
		C62.98201,3.65458,63.03056,5.36059,61.71981,6.6735z"></path>
</svg>
